<?xml version="1.0" encoding="utf-8"?>
<!-- Generator: Adobe Illustrator 19.1.1, SVG Export Plug-In . SVG Version: 6.00 Build 0)  -->
<svg version="1.1"  xmlns="http://www.w3.org/2000/svg" xmlns:xlink="http://www.w3.org/1999/xlink" x="0px" y="0px"
	 viewBox="0 0 48 48" enable-background="new 0 0 48 48" xml:space="preserve">
<path fill="#37474F" d="M22,26h-5v-7.8c0-0.6,0.5-1.2,1.2-1.2h0c0.5,0,0.9,0.3,1.1,0.8L22,26z"/>
<path fill="#FF1744" d="M35.5,22.1c-0.9-0.9-4.6-4.4-7.9-6.9c-0.4-0.3-1.1-0.2-1.4,0.2s-0.2,1.1,0.2,1.4c2.1,1.6,4.5,3.7,6.1,5.2
	C19.4,21.9,11,20,11,20s-4.8-0.3-6,1s-5,5.3-5,7s0,4,0,4s0,3,3,3s8,0,8,0h33.8c0,0,3.2,0.3,3.2-3C48,29,46.6,22.9,35.5,22.1z"/>
<path fill="#FFAB00" d="M4,22c0.9,0,4,0,4,0s-2.1,4-7,4C1,24.4,3.1,22,4,22z"/>
<path fill="#00E5FF" d="M40.7,23c0,0-0.2,4,5.9,4C46.5,23,40.7,23,40.7,23z"/>
<path fill="#A81616" d="M32.2,35c-0.1-0.5-0.2-1-0.2-1.5c0-3.6,2.9-6.5,6.5-6.5c3.6,0,6.5,2.9,6.5,6.5c0,0.5-0.1,1-0.2,1.5H32.2z
	 M16.8,35c0.1-0.5,0.2-1,0.2-1.5c0-3.6-2.9-6.5-6.5-6.5C6.9,27,4,29.9,4,33.5c0,0.5,0.1,1,0.2,1.5H16.8z"/>
<path fill="#37474F" d="M6,33.5C6,31,8,29,10.5,29c2.5,0,4.5,2,4.5,4.5c0,2.5-2,4.5-4.5,4.5C8,38,6,36,6,33.5z M38.5,38
	c2.5,0,4.5-2,4.5-4.5c0-2.5-2-4.5-4.5-4.5C36,29,34,31,34,33.5C34,36,36,38,38.5,38z"/>
<path fill="#90A4AE" d="M8,33.5c0-1.4,1.1-2.5,2.5-2.5s2.5,1.1,2.5,2.5c0,1.4-1.1,2.5-2.5,2.5S8,34.9,8,33.5z M38.5,36
	c1.4,0,2.5-1.1,2.5-2.5c0-1.4-1.1-2.5-2.5-2.5S36,32.1,36,33.5C36,34.9,37.1,36,38.5,36z"/>
</svg>
